<?xml version="1.0" standalone="no"?>
<!DOCTYPE svg PUBLIC "-//W3C//DTD SVG 20010904//EN"
 "http://www.w3.org/TR/2001/REC-SVG-20010904/DTD/svg10.dtd">
<svg version="1.0" xmlns="http://www.w3.org/2000/svg"
 width="501.000000pt" height="501.000000pt" viewBox="0 0 501.000000 501.000000"
 preserveAspectRatio="xMidYMid meet">
<metadata>
Created by potrace 1.11, written by Peter Selinger 2001-2013
</metadata>
<g transform="translate(0.000000,501.000000) scale(0.100000,-0.100000)"
fill="#000000" stroke="none">
<path d="M1233 4538 c0 -17 -13 -154 -18 -198 -2 -19 -7 -66 -10 -105 -3 -38
-8 -81 -10 -95 -2 -14 -7 -63 -11 -110 -3 -47 -8 -87 -10 -89 -2 -2 -16 5 -31
15 -15 10 -37 24 -48 29 -11 6 -32 19 -47 29 -28 18 -28 18 -29 -5 0 -13 -2
-31 -4 -39 -2 -14 -6 -55 -21 -215 -3 -38 -8 -72 -10 -74 -1 -2 -29 13 -61 32
-31 20 -60 34 -64 32 -3 -3 -9 -39 -13 -82 -15 -171 -24 -270 -31 -338 -15
-137 -15 -133 5 -128 10 3 31 28 46 57 77 149 247 351 387 463 86 69 211 147
307 191 78 36 261 99 314 107 36 6 70 13 106 21 14 3 97 7 185 9 155 3 285 -9
378 -35 22 -6 41 -9 43 -7 4 4 -140 99 -361 240 -42 26 -75 42 -75 35 -1 -18
-12 -123 -14 -125 -1 -1 -84 52 -186 117 -101 66 -185 118 -187 116 -2 -1 -6
-36 -9 -77 -4 -41 -8 -76 -10 -78 -4 -4 -87 45 -209 125 -336 219 -302 199
-302 182z m252 -350 c53 -27 95 -51 93 -53 -10 -9 -239 -125 -246 -125 -8 0
-4 47 12 145 2 17 5 45 5 63 1 41 3 40 136 -30z"/>
<path d="M2178 3965 c-2 -1 -39 -5 -83 -8 -329 -25 -623 -166 -886 -427 -192
-190 -329 -398 -406 -620 -44 -125 -61 -238 -62 -412 l-1 -77 -55 4 c-68 4
-163 -15 -200 -39 -39 -25 -90 -154 -111 -276 -3 -14 -6 -30 -9 -37 -18 -52
-26 -343 -12 -463 35 -314 173 -628 372 -846 129 -142 217 -218 395 -345 221
-157 633 -326 915 -374 192 -34 239 -38 460 -39 416 -3 786 82 1079 248 132
76 269 217 338 351 30 56 65 151 73 192 2 16 11 62 19 103 20 105 16 204 -12
260 -50 104 -205 257 -339 335 -102 61 -100 54 -79 203 20 151 26 189 32 222
3 14 7 106 11 205 6 167 8 185 34 246 149 349 38 816 -272 1143 -204 215 -455
348 -777 410 -116 23 -138 26 -252 32 -58 3 -120 7 -137 8 -18 2 -34 2 -35 1z
m492 -479 c219 -21 219 -21 315 -36 282 -44 415 -102 464 -200 22 -42 44 -128
36 -140 -3 -5 -55 25 -117 67 -149 100 -147 99 -233 69 -104 -37 -123 -39
-320 -41 -174 -2 -221 -6 -295 -24 -35 -9 -35 -9 15 -11 78 -3 101 -7 219 -36
73 -17 137 -26 186 -26 85 1 91 2 186 32 131 41 187 25 236 -67 41 -77 95
-261 133 -450 l7 -33 -59 -1 c-82 0 -139 -7 -210 -25 -52 -14 -70 -24 -110
-66 -27 -28 -67 -70 -91 -94 -23 -24 -40 -44 -37 -44 11 0 85 41 145 79 73 47
131 63 290 77 74 6 80 5 81 -12 4 -60 19 -156 36 -229 17 -76 21 -253 8 -370
-4 -38 -9 -85 -11 -104 -2 -19 -5 -48 -8 -65 -3 -17 -10 -65 -16 -106 -21
-139 -69 -262 -190 -485 -18 -33 -42 -73 -52 -90 -36 -54 80 73 120 133 54 79
91 153 121 244 l26 78 80 -54 c144 -96 291 -260 319 -357 19 -63 12 -131 -20
-188 -48 -87 -39 -84 -139 -57 -90 24 -115 24 -115 1 0 -11 22 -67 55 -140 13
-27 12 -32 -6 -51 -48 -51 -60 -51 -146 5 -44 28 -87 51 -95 51 -17 0 -30 -23
-23 -42 2 -7 6 -52 10 -100 5 -78 4 -88 -13 -97 -15 -8 -31 2 -93 60 -78 73
-103 83 -112 47 -4 -18 -19 -131 -21 -170 -1 -12 -20 -25 -47 -31 -20 -5 -28
-1 -42 22 -9 15 -37 56 -62 91 -57 76 -63 73 -105 -51 l-28 -84 -53 0 -53 0
-34 85 c-37 92 -48 110 -67 110 -7 0 -41 -44 -74 -98 -50 -82 -65 -98 -83 -96
-13 1 -28 3 -34 3 -6 1 -28 47 -49 103 -41 111 -54 132 -76 123 -8 -3 -41 -48
-74 -100 -83 -132 -94 -128 -136 41 -17 65 -34 123 -39 127 -16 17 -46 -5
-103 -76 -96 -121 -95 -119 -116 -112 -15 4 -22 22 -32 78 -7 40 -13 74 -14
77 -1 3 -5 24 -9 47 -14 79 -27 76 -124 -26 -66 -70 -91 -91 -105 -86 -9 4
-17 8 -18 9 0 0 -2 44 -5 96 -8 168 -11 170 -129 75 -44 -36 -85 -65 -92 -65
-6 0 -18 6 -26 14 -12 13 -11 29 8 120 21 106 19 136 -11 136 -8 0 -63 -25
-123 -55 -129 -64 -139 -62 -110 30 52 161 58 193 43 206 -16 13 -18 13 -175
-43 -92 -33 -97 -34 -108 -16 -10 16 -3 35 40 117 73 138 67 145 -96 116 -104
-19 -100 -19 -119 10 -17 25 -16 27 39 103 30 42 54 84 53 92 -3 12 -21 15
-83 17 -44 1 -89 2 -101 2 -12 1 -26 12 -33 27 -10 23 -9 30 7 48 11 12 41 43
66 71 25 27 46 53 46 56 0 16 -30 28 -90 33 -97 10 -101 11 -112 30 -17 31 -3
54 67 108 105 81 98 91 -82 138 -45 11 -47 15 -59 110 -9 69 -6 120 6 135 26
31 122 67 196 72 41 3 74 2 75 -3 1 -5 3 -27 4 -49 13 -149 67 -310 137 -408
68 -95 174 -172 290 -211 93 -31 140 -39 261 -41 100 -1 170 6 297 30 68 13
179 49 174 56 -3 5 -11 9 -18 9 -46 0 -189 117 -237 195 -51 81 -99 222 -136
395 -13 64 -18 130 -18 265 0 158 3 191 24 270 23 88 71 197 108 243 106 136
120 150 213 218 112 81 269 145 402 164 58 8 324 5 428 -4z"/>
<path d="M2080 2618 c-12 -40 -23 -79 -25 -86 -13 -36 -37 -221 -39 -296 -3
-99 9 -226 30 -311 8 -33 16 -67 18 -75 8 -30 56 -152 73 -183 92 -168 148
-244 273 -368 187 -185 417 -303 632 -324 l63 -6 -60 26 c-290 124 -536 330
-714 597 -161 242 -224 534 -139 648 28 38 106 90 193 128 139 60 233 68 321
28 64 -29 147 -110 182 -177 21 -39 56 -197 68 -304 6 -54 6 -193 1 -203 -8
-12 21 -72 35 -73 7 0 22 -3 33 -5 73 -18 161 3 208 50 42 42 32 49 -18 14
-40 -28 -49 -31 -81 -22 -39 10 -67 48 -84 117 -5 17 -22 88 -39 157 -86 347
-105 392 -196 445 -55 33 -163 64 -236 69 -56 3 -173 -29 -289 -81 -107 -48
-125 -50 -155 -17 -30 32 -40 103 -32 230 4 52 4 94 2 94 -2 0 -14 -33 -25
-72z"/>
<path d="M3275 2339 c-92 -17 -189 -79 -221 -140 -21 -41 -17 -54 9 -25 12 13
40 34 61 45 l40 21 17 -27 c61 -92 199 -56 199 52 0 13 6 25 13 28 11 4 65
-10 112 -29 12 -5 8 3 -12 19 -55 48 -144 71 -218 56z"/>
<path d="M2491 2238 c-61 -10 -124 -45 -184 -101 -31 -29 -41 -42 -24 -32 42
24 103 44 114 37 6 -4 17 -21 26 -37 23 -47 77 -69 130 -54 51 14 71 42 70 95
-1 27 3 44 10 45 7 1 21 3 33 4 12 1 46 -6 78 -15 31 -10 56 -16 56 -14 0 8
-89 53 -125 63 -54 14 -131 18 -184 9z"/>
<path d="M3290 1474 c-85 -38 -132 -46 -300 -47 -180 -1 -185 -4 -80 -44 134
-51 212 -62 262 -39 31 15 101 76 142 124 22 26 22 26 -24 6z"/>
<path d="M3125 1208 c-114 -21 -132 -39 -59 -57 57 -15 94 -7 128 24 48 45 33
52 -69 33z"/>
</g>
</svg>
