<svg width="19" height="20" viewBox="0 0 19 20" fill="none" xmlns="http://www.w3.org/2000/svg">
<path fill-rule="evenodd" clip-rule="evenodd" d="M9.59498 2.18172H9.40498C5.26008 2.18172 1.89998 5.54182 1.89998 9.68672V9.87672C1.89998 14.0216 5.26008 17.3817 9.40498 17.3817H9.59498C13.7399 17.3817 17.1 14.0216 17.1 9.87672V9.68672C17.1 5.54182 13.7399 2.18172 9.59498 2.18172ZM9.40498 1.13672C4.68295 1.13672 0.85498 4.96468 0.85498 9.68672V9.87672C0.85498 14.5988 4.68295 18.4267 9.40498 18.4267H9.59498C14.317 18.4267 18.145 14.5988 18.145 9.87672V9.68672C18.145 4.96468 14.317 1.13672 9.59498 1.13672H9.40498Z" fill="#00094D"/>
<path d="M9.49998 6.07672L10.6977 8.13314L13.0236 8.63681L11.438 10.4114L11.6777 12.7791L9.49998 11.8195L7.32224 12.7791L7.56196 10.4114L5.97632 8.63681L8.30222 8.13314L9.49998 6.07672Z" fill="#00094D"/>
</svg>
