<svg width="1400" height="21" viewBox="0 0 1400 21" fill="none" xmlns="http://www.w3.org/2000/svg">
<path fill-rule="evenodd" clip-rule="evenodd" d="M-237.817 13.6423C-233.435 9.80353 -223.501 5.2464 -208.697 5.92712C-190.972 6.74337 -171.916 19.2853 -160.927 20.3259C-140.182 22.2852 -133.332 15.8803 -130.053 13.1349C-128.073 11.4888 -128.917 10.7358 -130.735 11.8577C-134.355 14.1047 -141.53 16.5805 -153.346 15.1814C-166.803 13.5836 -175.941 1.90005 -195.29 0.281099C-223.484 -2.09236 -237.655 11.3051 -239.229 12.6876C-240.788 14.064 -239.814 15.3953 -237.817 13.6423Z" fill="url(#paint0_linear)"/>
<path fill-rule="evenodd" clip-rule="evenodd" d="M-130.543 13.6423C-126.161 9.80353 -116.227 5.2464 -101.423 5.92712C-83.698 6.74337 -64.6417 19.2853 -53.6526 20.3259C-32.9083 22.2852 -26.0584 15.8803 -22.7795 13.1349C-20.7992 11.4888 -21.6433 10.7358 -23.4613 11.8577C-27.081 14.1047 -34.2556 16.5805 -46.0725 15.1814C-59.5287 13.5836 -68.6672 1.90005 -88.0157 0.281099C-116.211 -2.09236 -130.381 11.3051 -131.955 12.6876C-133.514 14.064 -132.54 15.3953 -130.543 13.6423Z" fill="url(#paint1_linear)"/>
<path fill-rule="evenodd" clip-rule="evenodd" d="M-23.2693 13.6423C-18.8867 9.80353 -8.95284 5.2464 5.85068 5.92712C23.5759 6.74337 42.6323 19.2853 53.6213 20.3259C74.3657 22.2852 81.2156 15.8803 84.4944 13.1349C86.4747 11.4888 85.6306 10.7358 83.8126 11.8577C80.1929 14.1047 73.0183 16.5805 61.2015 15.1814C47.7452 13.5836 38.6067 1.90005 19.2583 0.281099C-8.93657 -2.09236 -23.107 11.3051 -24.6815 12.6876C-26.2397 14.064 -25.2658 15.3953 -23.2693 13.6423Z" fill="url(#paint2_linear)"/>
<path fill-rule="evenodd" clip-rule="evenodd" d="M84.5492 13.6423C88.9318 9.80353 98.8657 5.2464 113.669 5.92712C131.394 6.74337 150.451 19.2853 161.44 20.3259C182.184 22.2852 189.034 15.8803 192.313 13.1349C194.293 11.4888 193.449 10.7358 191.631 11.8577C188.011 14.1047 180.837 16.5805 169.02 15.1814C155.564 13.5836 146.425 1.90005 127.077 0.281099C98.8819 -2.09236 84.7115 11.3051 83.137 12.6876C81.5788 14.064 82.5527 15.3953 84.5492 13.6423Z" fill="url(#paint3_linear)"/>
<path fill-rule="evenodd" clip-rule="evenodd" d="M191.823 13.6423C196.206 9.80353 206.14 5.2464 220.943 5.92712C238.668 6.74337 257.725 19.2853 268.714 20.3259C289.458 22.2852 296.308 15.8803 299.587 13.1349C301.567 11.4888 300.723 10.7358 298.905 11.8577C295.285 14.1047 288.111 16.5805 276.294 15.1814C262.838 13.5836 253.699 1.90005 234.351 0.281099C206.156 -2.09236 191.985 11.3051 190.411 12.6876C188.853 14.064 189.827 15.3953 191.823 13.6423Z" fill="url(#paint4_linear)"/>
<path fill-rule="evenodd" clip-rule="evenodd" d="M299.097 13.6423C303.48 9.80353 313.414 5.2464 328.217 5.92712C345.942 6.74337 364.999 19.2853 375.988 20.3259C396.732 22.2852 403.582 15.8803 406.861 13.1349C408.841 11.4888 407.997 10.7358 406.179 11.8577C402.559 14.1047 395.385 16.5805 383.568 15.1814C370.112 13.5836 360.973 1.90005 341.625 0.281099C313.43 -2.09236 299.259 11.3051 297.685 12.6876C296.127 14.064 297.101 15.3953 299.097 13.6423Z" fill="url(#paint5_linear)"/>
<path fill-rule="evenodd" clip-rule="evenodd" d="M406.183 13.6423C410.565 9.80353 420.499 5.2464 435.303 5.92712C453.028 6.74337 472.084 19.2853 483.073 20.3259C503.818 22.2852 510.668 15.8803 513.947 13.1349C515.927 11.4888 515.083 10.7358 513.265 11.8577C509.645 14.1047 502.47 16.5805 490.654 15.1814C477.197 13.5836 468.059 1.90005 448.71 0.281099C420.516 -2.09236 406.345 11.3051 404.771 12.6876C403.212 14.064 404.186 15.3953 406.183 13.6423Z" fill="url(#paint6_linear)"/>
<path fill-rule="evenodd" clip-rule="evenodd" d="M513.457 13.6423C517.839 9.80353 527.773 5.2464 542.577 5.92712C560.302 6.74337 579.358 19.2853 590.347 20.3259C611.092 22.2852 617.942 15.8803 621.22 13.1349C623.201 11.4888 622.357 10.7358 620.539 11.8577C616.919 14.1047 609.744 16.5805 597.928 15.1814C584.471 13.5836 575.333 1.90005 555.984 0.281099C527.789 -2.09236 513.619 11.3051 512.045 12.6876C510.486 14.064 511.46 15.3953 513.457 13.6423Z" fill="url(#paint7_linear)"/>
<path fill-rule="evenodd" clip-rule="evenodd" d="M620.731 13.6423C625.113 9.80353 635.047 5.2464 649.851 5.92712C667.576 6.74337 686.632 19.2853 697.621 20.3259C718.366 22.2852 725.216 15.8803 728.494 13.1349C730.475 11.4888 729.631 10.7358 727.813 11.8577C724.193 14.1047 717.018 16.5805 705.201 15.1814C691.745 13.5836 682.607 1.90005 663.258 0.281099C635.063 -2.09236 620.893 11.3051 619.319 12.6876C617.76 14.064 618.734 15.3953 620.731 13.6423Z" fill="url(#paint8_linear)"/>
<path fill-rule="evenodd" clip-rule="evenodd" d="M728.549 13.6423C732.932 9.80353 742.866 5.2464 757.669 5.92712C775.394 6.74337 794.451 19.2853 805.44 20.3259C826.184 22.2852 833.034 15.8803 836.313 13.1349C838.293 11.4888 837.449 10.7358 835.631 11.8577C832.011 14.1047 824.837 16.5805 813.02 15.1814C799.564 13.5836 790.425 1.90005 771.077 0.281099C742.882 -2.09236 728.712 11.3051 727.137 12.6876C725.579 14.064 726.553 15.3953 728.549 13.6423Z" fill="url(#paint9_linear)"/>
<path fill-rule="evenodd" clip-rule="evenodd" d="M835.823 13.6423C840.206 9.80353 850.14 5.2464 864.943 5.92712C882.668 6.74337 901.725 19.2853 912.714 20.3259C933.458 22.2852 940.308 15.8803 943.587 13.1349C945.567 11.4888 944.723 10.7358 942.905 11.8577C939.285 14.1047 932.111 16.5805 920.294 15.1814C906.838 13.5836 897.699 1.90005 878.351 0.281099C850.156 -2.09236 835.985 11.3051 834.411 12.6876C832.853 14.064 833.827 15.3953 835.823 13.6423Z" fill="url(#paint10_linear)"/>
<path fill-rule="evenodd" clip-rule="evenodd" d="M943.097 13.6423C947.48 9.80353 957.414 5.2464 972.217 5.92712C989.942 6.74337 1009 19.2853 1019.99 20.3259C1040.73 22.2852 1047.58 15.8803 1050.86 13.1349C1052.84 11.4888 1052 10.7358 1050.18 11.8577C1046.56 14.1047 1039.38 16.5805 1027.57 15.1814C1014.11 13.5836 1004.97 1.90005 985.625 0.281099C957.43 -2.09236 943.259 11.3051 941.685 12.6876C940.127 14.064 941.101 15.3953 943.097 13.6423Z" fill="url(#paint11_linear)"/>
<path fill-rule="evenodd" clip-rule="evenodd" d="M1050.18 13.6423C1054.57 9.80353 1064.5 5.2464 1079.3 5.92712C1097.03 6.74337 1116.08 19.2853 1127.07 20.3259C1147.82 22.2852 1154.67 15.8803 1157.95 13.1349C1159.93 11.4888 1159.08 10.7358 1157.26 11.8577C1153.65 14.1047 1146.47 16.5805 1134.65 15.1814C1121.2 13.5836 1112.06 1.90005 1092.71 0.281099C1064.52 -2.09236 1050.35 11.3051 1048.77 12.6876C1047.21 14.064 1048.19 15.3953 1050.18 13.6423Z" fill="url(#paint12_linear)"/>
<path fill-rule="evenodd" clip-rule="evenodd" d="M1157.46 13.6423C1161.84 9.80353 1171.77 5.2464 1186.58 5.92712C1204.3 6.74337 1223.36 19.2853 1234.35 20.3259C1255.09 22.2852 1261.94 15.8803 1265.22 13.1349C1267.2 11.4888 1266.36 10.7358 1264.54 11.8577C1260.92 14.1047 1253.74 16.5805 1241.93 15.1814C1228.47 13.5836 1219.33 1.90005 1199.98 0.281099C1171.79 -2.09236 1157.62 11.3051 1156.04 12.6876C1154.49 14.064 1155.46 15.3953 1157.46 13.6423Z" fill="url(#paint13_linear)"/>
<path fill-rule="evenodd" clip-rule="evenodd" d="M1264.73 13.6423C1269.11 9.80353 1279.05 5.2464 1293.85 5.92712C1311.58 6.74337 1330.63 19.2853 1341.62 20.3259C1362.37 22.2852 1369.22 15.8803 1372.49 13.1349C1374.47 11.4888 1373.63 10.7358 1371.81 11.8577C1368.19 14.1047 1361.02 16.5805 1349.2 15.1814C1335.75 13.5836 1326.61 1.90005 1307.26 0.281099C1279.06 -2.09236 1264.89 11.3051 1263.32 12.6876C1261.76 14.064 1262.73 15.3953 1264.73 13.6423Z" fill="url(#paint14_linear)"/>
<path fill-rule="evenodd" clip-rule="evenodd" d="M1372.55 13.6423C1376.93 9.80353 1386.87 5.2464 1401.67 5.92712C1419.39 6.74337 1438.45 19.2853 1449.44 20.3259C1470.18 22.2852 1477.03 15.8803 1480.31 13.1349C1482.29 11.4888 1481.45 10.7358 1479.63 11.8577C1476.01 14.1047 1468.84 16.5805 1457.02 15.1814C1443.56 13.5836 1434.43 1.90005 1415.08 0.281099C1386.88 -2.09236 1372.71 11.3051 1371.14 12.6876C1369.58 14.064 1370.55 15.3953 1372.55 13.6423Z" fill="url(#paint15_linear)"/>
<path fill-rule="evenodd" clip-rule="evenodd" d="M1479.82 13.6423C1484.21 9.80353 1494.14 5.2464 1508.94 5.92712C1526.67 6.74337 1545.72 19.2853 1556.71 20.3259C1577.46 22.2852 1584.31 15.8803 1587.59 13.1349C1589.57 11.4888 1588.72 10.7358 1586.91 11.8577C1583.29 14.1047 1576.11 16.5805 1564.29 15.1814C1550.84 13.5836 1541.7 1.90005 1522.35 0.281099C1494.16 -2.09236 1479.99 11.3051 1478.41 12.6876C1476.85 14.064 1477.83 15.3953 1479.82 13.6423Z" fill="url(#paint16_linear)"/>
<path fill-rule="evenodd" clip-rule="evenodd" d="M1587.1 13.6423C1591.48 9.80353 1601.41 5.2464 1616.22 5.92712C1633.94 6.74337 1653 19.2853 1663.99 20.3259C1684.73 22.2852 1691.58 15.8803 1694.86 13.1349C1696.84 11.4888 1696 10.7358 1694.18 11.8577C1690.56 14.1047 1683.38 16.5805 1671.57 15.1814C1658.11 13.5836 1648.97 1.90005 1629.62 0.281099C1601.43 -2.09236 1587.26 11.3051 1585.68 12.6876C1584.13 14.064 1585.1 15.3953 1587.1 13.6423Z" fill="url(#paint17_linear)"/>
<defs>
<linearGradient id="paint0_linear" x1="-2971.73" y1="4.80662" x2="1174.36" y2="1477.48" gradientUnits="userSpaceOnUse">
<stop stop-color="#DAB958"/>
<stop offset="1" stop-color="#EFD27E"/>
</linearGradient>
<linearGradient id="paint1_linear" x1="-2971.73" y1="4.80662" x2="1174.36" y2="1477.48" gradientUnits="userSpaceOnUse">
<stop stop-color="#DAB958"/>
<stop offset="1" stop-color="#EFD27E"/>
</linearGradient>
<linearGradient id="paint2_linear" x1="-2971.73" y1="4.80662" x2="1174.36" y2="1477.48" gradientUnits="userSpaceOnUse">
<stop stop-color="#DAB958"/>
<stop offset="1" stop-color="#EFD27E"/>
</linearGradient>
<linearGradient id="paint3_linear" x1="-2971.73" y1="4.80662" x2="1174.36" y2="1477.48" gradientUnits="userSpaceOnUse">
<stop stop-color="#DAB958"/>
<stop offset="1" stop-color="#EFD27E"/>
</linearGradient>
<linearGradient id="paint4_linear" x1="-2971.73" y1="4.80662" x2="1174.36" y2="1477.48" gradientUnits="userSpaceOnUse">
<stop stop-color="#DAB958"/>
<stop offset="1" stop-color="#EFD27E"/>
</linearGradient>
<linearGradient id="paint5_linear" x1="-2971.73" y1="4.80662" x2="1174.36" y2="1477.48" gradientUnits="userSpaceOnUse">
<stop stop-color="#DAB958"/>
<stop offset="1" stop-color="#EFD27E"/>
</linearGradient>
<linearGradient id="paint6_linear" x1="-2971.73" y1="4.80662" x2="1174.36" y2="1477.48" gradientUnits="userSpaceOnUse">
<stop stop-color="#DAB958"/>
<stop offset="1" stop-color="#EFD27E"/>
</linearGradient>
<linearGradient id="paint7_linear" x1="-2971.73" y1="4.80662" x2="1174.36" y2="1477.48" gradientUnits="userSpaceOnUse">
<stop stop-color="#DAB958"/>
<stop offset="1" stop-color="#EFD27E"/>
</linearGradient>
<linearGradient id="paint8_linear" x1="-2971.73" y1="4.80662" x2="1174.36" y2="1477.48" gradientUnits="userSpaceOnUse">
<stop stop-color="#DAB958"/>
<stop offset="1" stop-color="#EFD27E"/>
</linearGradient>
<linearGradient id="paint9_linear" x1="-2971.73" y1="4.80662" x2="1174.36" y2="1477.48" gradientUnits="userSpaceOnUse">
<stop stop-color="#DAB958"/>
<stop offset="1" stop-color="#EFD27E"/>
</linearGradient>
<linearGradient id="paint10_linear" x1="-2971.73" y1="4.80662" x2="1174.36" y2="1477.48" gradientUnits="userSpaceOnUse">
<stop stop-color="#DAB958"/>
<stop offset="1" stop-color="#EFD27E"/>
</linearGradient>
<linearGradient id="paint11_linear" x1="-2971.73" y1="4.80662" x2="1174.36" y2="1477.48" gradientUnits="userSpaceOnUse">
<stop stop-color="#DAB958"/>
<stop offset="1" stop-color="#EFD27E"/>
</linearGradient>
<linearGradient id="paint12_linear" x1="-2971.73" y1="4.80662" x2="1174.36" y2="1477.48" gradientUnits="userSpaceOnUse">
<stop stop-color="#DAB958"/>
<stop offset="1" stop-color="#EFD27E"/>
</linearGradient>
<linearGradient id="paint13_linear" x1="-2971.73" y1="4.80662" x2="1174.36" y2="1477.48" gradientUnits="userSpaceOnUse">
<stop stop-color="#DAB958"/>
<stop offset="1" stop-color="#EFD27E"/>
</linearGradient>
<linearGradient id="paint14_linear" x1="-2971.73" y1="4.80662" x2="1174.36" y2="1477.48" gradientUnits="userSpaceOnUse">
<stop stop-color="#DAB958"/>
<stop offset="1" stop-color="#EFD27E"/>
</linearGradient>
<linearGradient id="paint15_linear" x1="-2971.73" y1="4.80662" x2="1174.36" y2="1477.48" gradientUnits="userSpaceOnUse">
<stop stop-color="#DAB958"/>
<stop offset="1" stop-color="#EFD27E"/>
</linearGradient>
<linearGradient id="paint16_linear" x1="-2971.73" y1="4.80662" x2="1174.36" y2="1477.48" gradientUnits="userSpaceOnUse">
<stop stop-color="#DAB958"/>
<stop offset="1" stop-color="#EFD27E"/>
</linearGradient>
<linearGradient id="paint17_linear" x1="-2971.73" y1="4.80662" x2="1174.36" y2="1477.48" gradientUnits="userSpaceOnUse">
<stop stop-color="#DAB958"/>
<stop offset="1" stop-color="#EFD27E"/>
</linearGradient>
</defs>
</svg>
