<svg width="156" height="179" viewBox="0 0 156 179" fill="none" xmlns="http://www.w3.org/2000/svg">
<path d="M70.466 26.0313C69.924 26.0313 69.3598 26.0801 68.7734 26.1778C68.187 26.2667 67.7384 26.3555 67.4274 26.4444L66.9609 26.5777L66.0947 25.6048L67.1075 16.8888H76.3566V18.9145L68.8001 18.7013L68.0538 24.8318C69.1288 24.5031 70.2128 24.3431 71.3056 24.352C73.2692 24.352 74.824 24.8229 75.9701 25.7647C77.1163 26.7065 77.6893 28.0259 77.6893 29.7229C77.6893 31.5443 77.0274 33.0769 75.7036 34.3208C74.3886 35.5646 72.5317 36.1866 70.1328 36.1866C69.191 36.1866 68.3114 36.0844 67.494 35.8801C66.6855 35.6668 66.108 35.4625 65.7615 35.267L65.2684 34.9605V33.0014C65.4283 33.108 65.6638 33.2457 65.9747 33.4145C66.2857 33.5744 66.881 33.7966 67.7606 34.0809C68.6491 34.3563 69.502 34.494 70.3194 34.494C71.8298 34.494 73.047 34.0987 73.9711 33.3079C74.904 32.5172 75.3704 31.4599 75.3704 30.136C75.3704 28.8477 74.9439 27.8438 74.091 27.1241C73.2381 26.3955 72.0297 26.0313 70.466 26.0313ZM87.4848 26.6043C87.4848 23.7878 88.209 21.4334 89.6572 19.5409C91.1143 17.6484 92.8912 16.7022 94.9881 16.7022C97.0227 16.7022 98.7108 17.6173 100.052 19.4476C101.403 21.2779 102.078 23.5568 102.078 26.2845C102.078 29.1009 101.354 31.4554 99.9058 33.3479C98.4665 35.2403 96.6984 36.1866 94.6016 36.1866C92.5492 36.1866 90.8477 35.267 89.4972 33.4278C88.1556 31.5887 87.4848 29.3142 87.4848 26.6043ZM90.0437 26.0979C90.0437 28.479 90.5057 30.4737 91.4297 32.0818C92.3626 33.69 93.5221 34.494 94.9081 34.494C96.2408 34.494 97.347 33.7744 98.2266 32.335C99.1062 30.8868 99.546 29.0432 99.546 26.8042C99.546 24.4409 99.0751 22.4507 98.1333 20.8336C97.2004 19.2077 96.0409 18.3948 94.6549 18.3948C93.3044 18.3948 92.1982 19.1189 91.3364 20.5671C90.4746 22.0153 90.0437 23.8589 90.0437 26.0979ZM103.078 31.1089V30.4292L112.527 16.8888H114.512V29.5363L117.165 29.483V31.1089H114.512V36H112.007V31.1089H103.078ZM105.37 29.7229L112.114 29.5896V20.0074L105.37 29.7229ZM131.771 33.8943V36H119.324V34.8805C119.581 34.6584 119.928 34.3696 120.363 34.0142C120.798 33.65 121.576 32.9303 122.695 31.8552C123.815 30.7802 124.797 29.7495 125.641 28.7633C126.485 27.7682 127.258 26.6621 127.96 25.4449C128.661 24.2188 129.012 23.1615 129.012 22.273C129.012 21.2157 128.59 20.3405 127.746 19.6475C126.902 18.9545 125.805 18.608 124.455 18.608C123.655 18.608 122.869 18.7324 122.096 18.9812C121.323 19.2299 120.754 19.4698 120.39 19.7008L119.817 20.0607V18.5547C119.959 18.4125 120.168 18.2437 120.443 18.0483C120.718 17.8439 121.332 17.5685 122.282 17.222C123.242 16.8755 124.259 16.7022 125.334 16.7022C127.298 16.7022 128.835 17.1953 129.945 18.1815C131.056 19.1589 131.611 20.3494 131.611 21.7532C131.611 22.6239 131.362 23.579 130.865 24.6186C130.376 25.6581 129.79 26.6132 129.106 27.4839C128.422 28.3546 127.617 29.2564 126.693 30.1893C125.769 31.1134 124.974 31.8641 124.308 32.4416C123.642 33.0103 122.971 33.5611 122.296 34.0942L131.771 33.8943ZM142.762 36V32.288H140.387V30.5139H142.762V28.0847H140.387V26.0104H142.762V16.512H147.893C150.276 16.512 152.042 16.9942 153.188 17.9586C154.352 18.923 154.935 20.3241 154.935 22.1619C154.935 24.0179 154.307 25.4736 153.051 26.5289C151.796 27.5661 149.949 28.0847 147.511 28.0847H145.218V30.5139H149.722V32.288H145.218V36H142.762ZM147.156 26.0104C148.812 26.0104 150.095 25.7374 151.004 25.1915C151.932 24.6456 152.396 23.6631 152.396 22.2438C152.396 21.0064 152.014 20.0875 151.25 19.4871C150.486 18.8866 149.294 18.5864 147.674 18.5864H145.218V26.0104H147.156Z" fill="#988853"/>
<path d="M41.4452 56.7268V53.3159L50.8558 51.6367V77H46.8502V55.1176L41.4452 56.7268ZM65.7065 64.7556C65.7065 61.059 66.6977 57.9513 68.6802 55.4324C70.6626 52.9019 73.0531 51.6367 75.8519 51.6367C78.5456 51.6367 80.7904 52.8378 82.5863 55.24C84.3821 57.6422 85.28 60.6217 85.28 64.1784C85.28 67.875 84.2946 70.9828 82.3239 73.5016C80.3531 76.0205 77.9684 77.2799 75.1697 77.2799C72.4526 77.2799 70.1961 76.0846 68.4003 73.694C66.6044 71.2918 65.7065 68.3123 65.7065 64.7556ZM69.8346 63.846C69.8346 66.9013 70.3944 69.4668 71.5138 71.5425C72.6333 73.6066 74.0327 74.6386 75.7119 74.6386C77.2862 74.6386 78.5864 73.7465 79.6126 71.9623C80.6388 70.1665 81.1519 67.8692 81.1519 65.0705C81.1519 62.0385 80.5863 59.4847 79.4552 57.409C78.3241 55.3333 76.9189 54.2954 75.2396 54.2954C73.6654 54.2954 72.371 55.1817 71.3564 56.9542C70.3419 58.7267 69.8346 61.024 69.8346 63.846ZM95.4254 64.2484C94.7373 64.2484 94.026 64.3067 93.2913 64.4233C92.5683 64.5399 92.0144 64.6507 91.6296 64.7556L91.0174 64.9305L89.6705 63.4612L90.9824 51.9165H103.349V55.1525L93.6412 54.7502L92.7491 62.2018C94.0435 61.7937 95.4137 61.5896 96.8597 61.5896C99.4135 61.5896 101.437 62.2135 102.929 63.4612C104.422 64.6973 105.168 66.429 105.168 68.6563C105.168 71.1169 104.288 73.1693 102.527 74.8135C100.778 76.4577 98.3057 77.2799 95.1105 77.2799C93.8394 77.2799 92.6675 77.1458 91.5946 76.8776C90.5218 76.5977 89.7696 76.3295 89.3382 76.0729L88.656 75.6706V72.557C88.8892 72.697 89.2099 72.8894 89.618 73.1343C90.0262 73.3675 90.8191 73.6765 91.9969 74.0614C93.1864 74.4462 94.3175 74.6386 95.3904 74.6386C97.2329 74.6386 98.7022 74.1605 99.7983 73.2042C100.895 72.248 101.443 70.9478 101.443 69.3035C101.443 67.7293 100.924 66.4932 99.8858 65.5952C98.848 64.6973 97.3611 64.2484 95.4254 64.2484ZM124.375 73.6765V77H107.792V75.1808C108.13 74.9126 108.573 74.5395 109.122 74.0614C109.67 73.5832 110.643 72.662 112.043 71.2976C113.454 69.9216 114.696 68.6097 115.769 67.3619C116.853 66.1025 117.833 64.7032 118.707 63.1639C119.593 61.6129 120.037 60.2777 120.037 59.1582C120.037 57.8405 119.494 56.7618 118.41 55.9222C117.325 55.0709 115.949 54.6453 114.282 54.6453C113.279 54.6453 112.288 54.7969 111.308 55.1001C110.329 55.3916 109.6 55.6948 109.122 56.0097L108.404 56.4295V54.068C108.591 53.8815 108.859 53.6599 109.209 53.4033C109.571 53.1351 110.393 52.7736 111.675 52.3188C112.958 51.8641 114.328 51.6367 115.786 51.6367C118.433 51.6367 120.503 52.2839 121.996 53.5783C123.488 54.861 124.235 56.4353 124.235 58.3011C124.235 59.4206 123.926 60.6392 123.308 61.9569C122.701 63.263 121.972 64.4699 121.121 65.5778C120.281 66.6739 119.273 67.8109 118.095 68.9887C116.929 70.1548 115.908 71.1052 115.034 71.8399C114.171 72.5629 113.296 73.2684 112.41 73.9564L124.375 73.6765ZM138.624 77V72.128H135.508V69.7995H138.624V66.6112H135.508V63.8886H138.624V51.422H145.359C148.488 51.422 150.804 52.0549 152.309 53.3206C153.838 54.5864 154.602 56.4254 154.602 58.8375C154.602 61.2735 153.778 63.1841 152.13 64.5692C150.482 65.9305 148.058 66.6112 144.858 66.6112H141.849V69.7995H147.759V72.128H141.849V77H138.624ZM144.392 63.8886C146.565 63.8886 148.249 63.5304 149.443 62.8139C150.661 62.0974 151.27 60.8078 151.27 58.9449C151.27 57.3209 150.769 56.1149 149.766 55.3268C148.763 54.5386 147.198 54.1446 145.073 54.1446H141.849V63.8886H144.392Z" fill="#BA250D"/>
<path d="M63.909 29.1765H140.114V30.5358H63.909V29.1765ZM140.114 27.2113H155.999V28.576H140.114V27.2113Z" fill="#988853"/>
<g filter="url(#filter0_d)">
<rect x="11" y="117.235" width="144.865" height="61.3597" rx="30.6798" fill="#BA250D"/>
<path d="M27.4657 150.916H47.9137L48.6923 147.884H28.2443L27.4657 150.916ZM68.0769 158.415C69.675 148.703 73.8548 139.278 80.4932 130.099V128.624H67.9539L64.9216 133.992L65.4133 134.361C66.2738 133.459 67.2163 133.05 68.5276 133.05H77.0921V133.541C68.8964 142.966 64.3479 151.572 63.1185 158.415H68.0769ZM87.4233 158.087C85.9071 158.087 84.8007 156.858 84.8007 154.932C84.8007 153.866 85.4974 147.802 88.3658 138.131C90.1689 132.148 91.1523 129.157 93.734 129.157C95.2501 129.157 96.3975 130.345 96.3975 132.271C96.3975 133.828 95.537 139.688 92.7915 149.072C91.0294 155.096 90.0049 158.087 87.4233 158.087ZM87.7512 159.071C91.4802 159.071 94.9633 155.997 97.6679 149.933C99.3889 146.04 100.249 141.942 100.249 138.213C100.249 131.738 97.7088 128.214 93.4471 128.214C89.6361 128.214 86.194 131.247 83.5304 137.27C81.8093 141.163 80.9078 145.302 80.9078 149.031C80.9078 155.506 83.4894 159.071 87.7512 159.071ZM113.818 130.509C114.474 131.288 115.334 132.025 116.441 132.64C116.523 133.173 116.564 133.705 116.564 134.238C116.564 135.877 116.195 137.393 115.375 138.95C113.859 141.901 111.728 143.499 109.843 143.499C108.163 143.499 107.262 142.516 107.262 140.713C107.262 139.524 108.122 136.697 110.212 133.459C111.236 131.861 112.425 130.878 113.818 130.509ZM130.373 144.319C131.889 144.319 132.914 145.63 132.914 147.843C132.914 149.851 132.217 152.022 130.906 153.948C129.431 156.12 127.792 157.227 126.152 157.227C124.472 157.227 123.571 156.243 123.571 154.44C123.571 153.006 124.513 150.219 126.685 146.9C127.792 145.22 129.103 144.319 130.373 144.319ZM119.514 153.293C119.514 156.284 121.768 158.62 125.005 158.62C127.218 158.62 129.185 157.677 130.906 155.833C132.955 153.621 134.102 150.793 134.102 148.048C134.102 144.646 132.135 142.679 128.898 142.679C126.685 142.679 124.144 144.114 121.973 146.9C120.334 148.99 119.514 151.326 119.514 153.293ZM126.439 128.255C124.39 130.673 122.137 131.861 119.842 131.861C119.104 131.861 118.285 131.697 117.301 131.41C116.195 129.73 114.679 128.911 112.63 128.911C110.417 128.911 107.835 130.345 105.704 133.132C104.065 135.262 103.246 137.557 103.246 139.524C103.246 142.516 105.499 144.81 108.737 144.81C111.441 144.81 113.9 143.417 115.744 140.672C117.096 138.664 117.752 136.656 117.752 134.525C117.752 133.992 117.711 133.418 117.629 132.845C118.49 132.968 119.227 133.05 119.842 133.05C121.44 133.05 122.833 132.64 124.267 131.738L109.065 159.358H111.359L128.529 128.255H126.439Z" fill="white"/>
</g>
<defs>
<filter id="filter0_d" x="0.157257" y="106.393" width="155.708" height="72.2024" filterUnits="userSpaceOnUse" color-interpolation-filters="sRGB">
<feFlood flood-opacity="0" result="BackgroundImageFix"/>
<feColorMatrix in="SourceAlpha" type="matrix" values="0 0 0 0 0 0 0 0 0 0 0 0 0 0 0 0 0 0 127 0"/>
<feOffset dx="-10.8427" dy="-10.8427"/>
<feColorMatrix type="matrix" values="0 0 0 0 0.67451 0 0 0 0 0.109804 0 0 0 0 0.0235294 0 0 0 1 0"/>
<feBlend mode="normal" in2="BackgroundImageFix" result="effect1_dropShadow"/>
<feBlend mode="normal" in="SourceGraphic" in2="effect1_dropShadow" result="shape"/>
</filter>
</defs>
</svg>
