<svg width="24" height="24" viewBox="0 0 24 24" fill="none" xmlns="http://www.w3.org/2000/svg">
<g clip-path="url(#clip0)">
<path fill-rule="evenodd" clip-rule="evenodd" d="M11.1437 3.59554C10.296 2.73157 8.90422 2.73157 8.05649 3.59554C7.93061 3.72383 7.8601 3.89638 7.8601 4.0761V5.22H11.3401V4.0761C11.3401 3.89638 11.2696 3.72383 11.1437 3.59554ZM12.0001 2.58653C10.6284 1.28033 8.45124 1.3085 7.11429 2.67106C6.74627 3.04613 6.5401 3.55063 6.5401 4.0761V5.22H2.1001V10.38H3.1801V21.66H20.8201V10.38H21.9001V5.22H17.4601V4.0761C17.4601 3.55063 17.2539 3.04613 16.8859 2.67106C15.549 1.3085 13.3718 1.28033 12.0001 2.58653ZM16.1401 5.22V4.0761C16.1401 3.89638 16.0696 3.72383 15.9437 3.59554C15.096 2.73157 13.7042 2.73157 12.8565 3.59554C12.7306 3.72383 12.6601 3.89638 12.6601 4.0761V5.22H16.1401ZM13.0201 6.54H10.9801V9.06H13.0201V6.54ZM14.3401 9.06V6.54H20.5801V9.06H14.3401ZM13.0201 10.38H10.9801V20.34H13.0201V10.38ZM14.3401 20.34V10.38H19.5001V20.34H14.3401ZM9.6601 20.34V10.38H4.5001V20.34H9.6601ZM9.6601 9.06V6.54H3.4201V9.06H9.6601Z" fill="white"/>
</g>
<defs>
<clipPath id="clip0">
<rect width="24" height="24" fill="white"/>
</clipPath>
</defs>
</svg>
