<svg width="254" height="35" viewBox="0 0 254 35" fill="none" xmlns="http://www.w3.org/2000/svg">
<path d="M103.995 12.2703C103.663 11.5891 103.255 11.5571 102.852 11.5255C102.805 11.5218 102.758 11.5181 102.711 11.5134C101.536 11.3955 100.079 12.7617 98.3418 15.6096L96.3232 15.3655C96.221 15.3539 96.0997 15.3925 95.9528 15.4737C95.8059 15.5562 95.7228 15.6663 95.71 15.8022C95.6717 16.1185 96.3743 16.3563 97.8052 16.516C97.8052 16.516 95.3778 20.3134 94.458 21.6333C93.3337 23.2418 91.8199 23.96 90.5998 23.8338C90.3826 23.8138 90.1909 23.6947 90.0121 23.4814C89.8332 23.2682 89.7182 22.9809 89.6735 22.6137C89.6671 22.5145 89.6416 22.4656 89.6033 22.4611C89.5202 22.4521 89.4436 22.5267 89.3797 22.6871C89.3542 23.1007 89.4691 23.4917 89.7438 23.8595C90.0121 24.2287 90.3506 24.4322 90.7658 24.476C91.9603 24.601 93.1741 24.3865 94.7455 22.9365C95.9943 21.7892 97.6194 18.9857 98.5087 17.4513C98.743 17.0472 98.9262 16.7312 99.0381 16.5566C99.6705 16.5128 100.475 16.4658 101.453 16.4104C102.487 16.3228 103.011 16.2222 103.024 16.1127C103.03 16.0715 102.998 16.0406 102.947 16.0194C102.424 16.0078 101.389 15.9221 99.8237 15.7636L99.5682 15.7372C100.29 14.6859 100.724 14.0785 100.859 13.909C101.529 13.0607 102.2 12.6735 102.858 12.7366C103.158 12.7708 103.363 12.9028 103.465 13.1347C103.522 13.2494 103.586 13.3157 103.663 13.3215C103.918 13.346 104.072 13.1483 104.116 12.7231C104.135 12.5421 104.097 12.3959 103.995 12.2703Z" fill="#00094D"/>
<path fill-rule="evenodd" clip-rule="evenodd" d="M94.2886 17.4928C94.235 17.9759 93.6658 18.7295 92.5818 19.7602C91.3017 20.9712 90.2579 21.5446 89.4543 21.4608L89.1113 21.4222C88.7395 21.3835 88.4655 21.171 88.2937 20.778C88.1493 20.501 88.0976 20.2047 88.1308 19.8826C88.2253 19.0645 88.9797 17.9694 90.3965 16.6038C91.8185 15.2446 92.9197 14.6004 93.6945 14.6777C94.4202 14.755 94.7415 15.1608 94.6597 15.908C94.6412 16.1013 94.5748 16.3461 94.47 16.636C94.4834 16.6811 94.615 16.7133 94.8731 16.7391C95.1324 16.7648 95.5419 16.6746 96.1002 16.4685C96.0612 16.7004 95.4569 16.9774 94.2886 17.3059C94.2956 17.3575 94.2982 17.4283 94.2886 17.4928ZM90.7542 17.7118C89.7367 18.7231 89.1988 19.4896 89.1375 20.005C89.0826 20.5268 89.2231 20.8102 89.5693 20.8424C90.1851 20.9068 91.0251 20.4559 92.0931 19.4768C93.156 18.5041 93.7124 17.7826 93.7642 17.3124C93.5527 17.1707 93.2998 16.8228 93.0117 16.2753C92.5269 16.2302 91.7712 16.7069 90.7542 17.7118Z" fill="#00094D"/>
<path d="M109.121 24.1073H115.654C117.348 24.1073 118.288 23.7653 118.682 23.5771C119.879 23.0299 120.46 22.1747 120.46 20.9433C120.46 19.5067 119.639 18.7029 118.938 18.3095C118.305 17.9503 117.399 17.728 116.869 17.6425V17.4202C117.382 17.3004 118.203 17.0268 118.767 16.6163C119.605 16.0177 119.845 15.2994 119.845 14.7008C119.845 14.0338 119.588 12.905 118.049 12.2209C117.536 11.9986 116.578 11.6736 114.902 11.6736H109.121V12.067C109.429 12.0499 110.216 12.0841 110.472 12.3406C110.712 12.5801 110.712 12.9905 110.712 13.2642V22.5168C110.712 22.7904 110.712 23.2009 110.472 23.4403C110.216 23.6969 109.429 23.7311 109.121 23.714V24.1073ZM113.14 17.232V13.0077C113.14 12.7853 113.14 12.4604 113.345 12.2722C113.534 12.0841 113.893 12.067 114.32 12.067C114.868 12.067 115.62 12.067 116.236 12.4262C117.091 12.9221 117.194 13.7602 117.194 14.5982C117.194 15.402 117.091 16.3085 116.236 16.8387C115.689 17.1807 114.902 17.232 114.355 17.232H113.14ZM113.14 17.6938H114.457C115.158 17.6938 116.27 17.7964 117.023 18.5147C117.741 19.1988 117.809 20.225 117.809 20.8749C117.809 21.6787 117.655 22.7049 116.783 23.2864C116.202 23.6798 115.432 23.714 114.714 23.714C114.406 23.714 113.722 23.7311 113.38 23.2351C113.157 22.9101 113.14 22.4313 113.14 21.5932V17.6938Z" fill="#00094D"/>
<path d="M129.143 11.5183C127.603 11.5183 125.842 11.9972 124.439 13.5193C123.122 14.9389 122.695 16.5636 122.695 17.9318C122.695 19.2487 123.105 20.9248 124.422 22.3272C125.158 23.114 126.697 24.3454 129.143 24.3454C131.298 24.3454 132.871 23.3876 133.88 22.3272C135.197 20.9248 135.607 19.2487 135.607 17.9318C135.607 16.2729 134.992 14.7336 133.863 13.5193C132.255 11.7919 130.271 11.5183 129.143 11.5183ZM129.143 11.9459C130.648 11.9459 131.657 12.6813 132.272 14.1008C132.717 15.127 132.871 16.3755 132.871 17.8976C132.871 19.796 132.615 20.9761 132.272 21.7628C131.657 23.1995 130.648 23.9007 129.143 23.9007C127.603 23.9007 126.663 23.1995 126.03 21.7628C125.5 20.5314 125.431 19.2487 125.431 17.9147C125.431 16.6149 125.483 15.3322 126.03 14.1008C126.646 12.6813 127.621 11.9459 129.143 11.9459Z" fill="#00094D"/>
<path d="M137.32 24.1073H142.947V23.714C142.673 23.714 141.938 23.6627 141.664 23.4403C141.373 23.2009 141.356 22.8075 141.356 22.5168V17.7964H148.009V22.5168C148.009 22.8075 147.992 23.2009 147.701 23.4403C147.428 23.6627 146.692 23.714 146.419 23.714V24.1073H152.045V23.714C151.703 23.7311 150.985 23.6627 150.746 23.4403C150.472 23.2009 150.455 22.7904 150.455 22.5168V13.2642C150.455 12.9905 150.472 12.5801 150.746 12.3406C150.985 12.1183 151.703 12.0499 152.045 12.067V11.6736H146.419V12.067C146.761 12.0499 147.479 12.1183 147.718 12.3406C147.992 12.5801 148.009 12.9905 148.009 13.2642V17.2491H141.356V13.2642C141.356 12.9905 141.373 12.5801 141.647 12.3406C141.886 12.1183 142.605 12.0499 142.947 12.067V11.6736H137.32V12.067C137.662 12.0499 138.38 12.1183 138.62 12.3406C138.893 12.5801 138.91 12.9905 138.91 13.2642V22.5168C138.91 22.7904 138.893 23.2009 138.62 23.4403C138.38 23.6627 137.662 23.7311 137.32 23.714V24.1073Z" fill="#00094D"/>
<path d="M153.713 24.1073H164.522L165.514 20.4815L165.138 20.4473C164.83 21.0117 164.197 21.9866 163.479 22.6023C162.504 23.4574 161.478 23.714 160.195 23.714H158.913C158.554 23.714 158.058 23.7311 157.887 23.5258C157.767 23.389 157.75 23.1154 157.75 22.4826V17.9161H158.913C159.819 17.9161 161.102 17.9845 161.871 19.0962C162.162 19.5238 162.35 20.1395 162.385 20.7381H162.744V14.9916H162.385C162.282 15.4362 162.043 16.1032 161.752 16.4624C160.965 17.4373 159.528 17.4715 158.913 17.4715H157.75V12.5117C157.75 12.4091 157.767 12.2209 157.818 12.1696C157.852 12.1183 157.955 12.067 158.4 12.067H159.888C160.845 12.067 161.17 12.1183 161.495 12.2209C162.094 12.4091 162.538 12.7169 162.829 12.9392C163.12 13.1616 163.719 13.6405 164.882 14.9916H165.258L163.89 11.6736H153.713V12.067C154.004 12.0499 154.808 12.0841 155.065 12.3406C155.304 12.5801 155.304 13.059 155.304 13.2642V22.5168C155.304 22.722 155.304 23.2009 155.065 23.4403C154.808 23.6969 154.004 23.7311 153.713 23.714V24.1073Z" fill="#00094D"/>
<path d="M167.192 24.1073H171.348V23.714C170.783 23.7311 170.253 23.4916 169.979 23.2009C169.62 22.8075 169.518 22.1234 169.518 21.2512V13.4181L173.93 24.1073H174.289L178.856 13.1103V22.5168C178.856 22.7904 178.856 23.2009 178.616 23.4403C178.36 23.6969 177.607 23.7482 177.282 23.714V24.1073H182.892V23.714C182.567 23.7482 181.814 23.6969 181.558 23.4403C181.319 23.2009 181.319 22.7904 181.319 22.5168V13.2642C181.319 12.8195 181.301 12.1525 182.225 12.1012L182.892 12.067V11.6736H178.822L175.127 20.5329L171.536 11.6736H167.192V12.067L167.944 12.1012C168.645 12.1354 168.885 12.3235 168.885 13.401V21.2512C168.885 22.0892 168.782 22.722 168.457 23.1154C168.201 23.4232 167.722 23.6798 167.192 23.714V24.1073Z" fill="#00094D"/>
<path d="M190.684 23.714H190.496C189.641 23.714 189.333 23.5942 189.179 23.4403C188.939 23.2009 188.939 22.8075 188.939 22.5168V13.2642C188.939 12.9734 188.939 12.5801 189.179 12.3406C189.333 12.1867 189.641 12.067 190.496 12.067H190.684V11.6736H184.732V12.067H184.92C185.775 12.067 186.083 12.1867 186.237 12.3406C186.477 12.5801 186.477 12.9734 186.477 13.2642V22.5168C186.477 22.8075 186.477 23.2009 186.237 23.4403C186.083 23.5942 185.775 23.714 184.92 23.714H184.732V24.1073H190.684V23.714Z" fill="#00094D"/>
<path d="M191.376 24.1111H195.343V23.7177H195.275C194.882 23.7177 193.924 23.6835 193.924 22.8455C193.924 22.4863 194.146 21.9561 194.215 21.8193L194.83 20.4682H200.303L200.97 21.9048C201.364 22.7428 201.398 22.9823 201.398 23.0849C201.398 23.4441 201.09 23.5296 200.868 23.5809C200.44 23.6835 200.013 23.7177 199.927 23.7177V24.1111H205.896V23.7177H205.725C204.767 23.7177 204.271 23.1875 203.758 22.0929L198.764 11.5063H198.456C198.165 11.8826 197.721 12.4299 196.814 13.1824C196.951 13.285 197.139 13.4732 197.139 13.7297C197.139 13.8323 197.122 13.952 196.968 14.2941L193.702 21.5628C193.428 22.1956 193.12 22.7942 192.693 23.1533C192.333 23.4612 191.82 23.6493 191.376 23.7177V24.1111ZM195.104 19.8525L197.516 14.4651L200.03 19.8525H195.104Z" fill="#00094D"/>
<path d="M60.0583 15.8843C61.2418 14.9563 62.1455 14.4909 62.7864 14.4909C63.4245 14.4909 63.7435 14.6315 63.7435 14.9183C63.7435 15.0139 63.7182 15.1222 63.6662 15.2403C63.2685 16.3835 62.2706 17.4395 60.6796 18.4054C59.0914 19.37 57.8124 19.8523 56.8636 19.8523C56.688 19.8523 56.5207 19.8312 56.3717 19.7806C57.2487 18.4251 58.4814 17.1245 60.0583 15.8843ZM50.3927 15.8843C51.572 14.9563 52.4771 14.4909 53.118 14.4909C53.7561 14.4909 54.0765 14.6315 54.0765 14.9183C54.0765 15.0139 54.0555 15.1222 54.0035 15.2403C53.5987 16.3835 52.605 17.4395 51.0112 18.4054C49.4187 19.37 48.1454 19.8523 47.1966 19.8523C47.0181 19.8523 46.8579 19.8312 46.7061 19.7806C47.5817 18.4251 48.8116 17.1245 50.3927 15.8843ZM81.0101 18.494C80.9398 18.494 80.7065 18.7148 80.334 19.138C80.2075 19.3082 80.1204 19.4164 80.0726 19.4628C77.3389 22.3481 75.4176 23.7936 74.3143 23.7936C73.9643 23.7936 73.7886 23.4083 73.7886 22.6462C73.7886 21.8827 74.1709 20.928 74.9397 19.7806C75.7001 18.6389 76.6348 17.4451 77.7395 16.2063C78.6896 15.0378 79.1928 14.3924 79.2434 14.2757C79.2925 14.1562 79.3207 14.0353 79.3207 13.9172C79.3207 13.321 78.9665 13.0229 78.2623 13.0229C78.1639 13.0229 78.0501 13.037 77.9278 13.0581C76.6727 13.0581 73.1224 15.8365 67.2812 21.3948C67.7295 19.8692 69.0872 17.6138 71.3431 14.6315C71.4204 14.4909 71.4583 14.346 71.4583 14.2054C71.4583 13.6992 71.114 13.4532 70.4393 13.4532C70.1877 13.4532 69.9516 13.598 69.7281 13.8778C67.7886 16.0643 66.4997 17.5534 65.8152 18.3928C65.6578 18.5826 65.4878 18.7696 65.3219 18.9566C65.1968 19.0972 65.0703 19.2421 64.9382 19.3855C64.0598 20.3191 63.0619 21.2176 61.9389 22.074C59.96 23.6699 58.3479 24.4685 57.1068 24.4685C55.8657 24.4685 55.2431 23.8513 55.2431 22.6125C55.2431 21.8926 55.4314 21.2134 55.8081 20.5736C55.9571 20.6215 56.13 20.6425 56.3338 20.6425C57.662 20.6425 59.3865 20.0351 61.506 18.8174C63.6283 17.6026 64.6866 16.3272 64.6866 14.9872C64.6866 14.5612 64.5011 14.2012 64.1385 13.8975C63.7773 13.6008 63.3064 13.4532 62.726 13.4532C60.9705 13.4532 58.9916 14.5513 56.7863 16.7434C55.3302 18.1917 54.3647 19.5219 53.8713 20.741C53.3654 21.1937 52.8383 21.6423 52.2705 22.074C50.2944 23.6699 48.678 24.4685 47.4384 24.4685C46.1987 24.4685 45.5775 23.8513 45.5775 22.6125C45.5775 21.8926 45.7658 21.2134 46.1425 20.5736C46.2915 20.6215 46.47 20.6425 46.6682 20.6425C47.9964 20.6425 49.7209 20.0351 51.839 18.8174C53.9585 17.6026 55.021 16.3272 55.021 14.9872C55.021 14.5612 54.8355 14.2012 54.4743 13.8975C54.1103 13.6008 53.638 13.4532 53.0632 13.4532C51.3063 13.4532 49.3246 14.5513 47.1207 16.7434C45.6351 18.2213 44.6611 19.5753 44.1748 20.8155C42.5585 22.3453 41.1179 23.376 39.86 23.8963C39.6337 23.9961 39.4327 24.0453 39.257 24.0453C38.8817 24.0453 38.6934 23.7191 38.6934 23.0751C38.6934 22.4325 39.0687 21.5931 39.822 20.5526C40.5782 19.5149 41.6674 18.1748 43.0982 16.5311C44.1467 15.3837 44.6766 14.6919 44.6766 14.4529C44.6766 13.7892 44.2226 13.4532 43.3189 13.4532C42.7187 13.4532 41.4636 14.5921 39.5578 16.8658C37.6547 19.1465 36.349 20.6215 35.6435 21.2879C33.6392 23.2649 32.1086 24.2562 31.0573 24.2562C30.7551 24.2562 30.6048 24.0453 30.6048 23.6122C30.6048 22.6336 31.3637 21.1206 32.8845 19.0691C34.401 17.019 35.6603 15.5525 36.6624 14.668C36.8128 14.5204 36.8873 14.37 36.8873 14.2054C36.8873 13.7752 36.5514 13.5572 35.874 13.5572C35.1979 13.5572 34.5317 13.9172 33.8782 14.6315L28.6877 20.4274C28.4642 20.7143 28.3489 20.9181 28.3489 21.0377C28.3489 21.1558 28.4038 21.2134 28.5021 21.2134C28.6483 21.2134 28.772 21.167 28.8746 21.07C29.6279 20.2615 30.3658 19.5458 31.0967 18.9271C29.7896 20.665 29.1388 22.0501 29.1388 23.0751V23.3254C29.2344 24.5417 29.8064 25.1505 30.831 25.1505C32.4628 25.1505 34.7201 23.5532 37.6027 20.3571C37.5282 20.665 37.3961 21.1206 37.2078 21.714C37.0194 22.3144 36.9253 22.8529 36.9253 23.3451C36.9253 23.8316 37.1347 24.2337 37.5465 24.5417C37.9597 24.8524 38.3715 25.0099 38.789 25.0099C39.2036 25.0099 39.472 24.9944 39.5957 24.9705C40.1973 24.8524 41.2275 24.1915 42.6808 22.9837C43.0996 22.6378 43.4679 22.2919 43.8572 21.946C43.8263 22.1471 43.808 22.3453 43.808 22.5394C43.808 23.8245 44.6119 24.6837 46.2142 25.1125C46.4419 25.1871 46.6921 25.2222 46.969 25.2222C48.3 25.2222 49.9149 24.5642 51.8207 23.2537C52.4181 22.8417 52.9817 22.4044 53.5256 21.9544C53.4961 22.1527 53.4778 22.3496 53.4778 22.5394C53.4778 23.8245 54.2789 24.6837 55.8798 25.1125C56.1131 25.1871 56.3619 25.2222 56.636 25.2222C57.9655 25.2222 59.5805 24.5642 61.4905 23.2537C62.9635 22.2385 64.272 21.1037 65.4175 19.8551L66.4899 18.7851C65.9909 19.8312 65.5763 20.7227 65.2474 21.4665C64.9228 22.2061 64.7639 22.7953 64.7639 23.2368C64.7639 23.6755 64.8651 24.0495 65.0816 24.3462C65.2952 24.6429 65.5862 24.7962 65.9642 24.7962C66.1399 24.7962 66.7696 24.1254 67.8602 22.7882C68.9565 21.4567 70.1639 20.0773 71.4949 18.6585C72.8231 17.2384 74.3396 15.9335 76.0444 14.7398L73.6411 18.4603C72.6375 20.1307 72.1315 21.6099 72.1315 22.8965C72.1315 24.1859 72.7486 24.8285 73.9756 24.8285C75.277 24.8285 77.4851 23.1468 80.5983 19.7806C80.9496 19.4038 81.1211 19.0902 81.1211 18.8554C81.1211 18.6121 81.086 18.494 81.0101 18.494Z" fill="#00094D"/>
<path fill-rule="evenodd" clip-rule="evenodd" d="M3.91065 30.6334C4.32736 31.2189 4.87951 31.6155 5.53832 31.809C7.75921 32.4747 10.2911 31.8798 12.7489 30.4918C13.7985 30.7892 14.839 31.1717 15.8499 31.5824C15.2959 31.9412 14.7532 32.2387 14.2326 32.4606C9.35574 34.5332 4.99749 34.3396 2.53357 32.1017C2.3448 31.9318 2.16358 31.7382 1.99558 31.5258L1.97622 31.5352C1.56612 31.7854 1.23012 32.0451 0.964421 32.2953C0.385368 32.8477 0.101732 32.4275 0.554309 31.9979C0.671347 31.8846 1.03238 31.521 1.64588 31.063L1.63502 31.0489C-0.183308 28.3436 -0.757633 23.2115 2.15698 16.7198C5.51332 9.23656 11.3388 1.93746 19.7622 0.724092C24.926 -0.0218698 27.3659 1.29539 28.4522 2.46155C29.5528 3.62298 28.8963 3.4247 28.1049 2.94313C26.7995 2.14051 24.3087 1.35678 20.6098 2.17356C15.7338 3.24057 8.69645 8.68418 5.36701 16.6679C2.74593 22.9566 2.35896 27.4891 3.48969 29.9111L3.51423 29.8969C5.61713 28.7591 8.87012 27.7015 13.3275 28.1075C14.1585 28.183 14.9254 28.3247 15.6357 28.5372C14.7296 29.2737 13.7914 29.9205 12.8362 30.4446C13.7928 29.9205 14.7357 29.2784 15.6357 28.5372L15.6725 28.5041C16.4502 27.9045 17.1935 27.2247 17.9014 26.4976C22.337 21.9652 26.1091 15.8228 27.2153 11.1912C28.7208 4.88828 23.3686 4.232 18.7485 8.45282C14.2454 12.5698 13.4667 17.8954 13.7536 19.7839C13.8532 20.4213 13.5917 20.6951 13.2784 19.8689C12.6838 18.3203 11.1085 15.1052 13.8574 10.2753C16.8735 4.95441 22.3946 2.5796 26.3045 4.18955C30.212 5.79951 30.9006 10.5585 27.8114 17.0739C25.7967 21.3325 22.0557 26.3606 18.4129 29.5805L18.3785 29.6136C17.6475 30.2746 16.9174 30.8648 16.2048 31.3464C16.9297 30.8553 17.6739 30.2604 18.4129 29.5805C21.0161 30.827 23.0109 32.4558 25.5239 32.7769C28.9591 33.2159 31.0464 32.4417 32.0979 31.7382C32.6231 31.3841 32.8694 31.6202 32.2956 32.1348C31.3428 32.9988 29.3512 35.0053 23.3219 34.3916C21.4522 34.198 18.7801 32.7769 15.8499 31.5824L15.8027 31.5635C14.8093 31.1528 13.7857 30.7703 12.7489 30.4918L12.7234 30.4823C11.6299 30.1471 10.5223 29.9299 9.43266 29.878C7.19715 29.7647 5.34248 30.0999 3.90121 30.6193L3.91065 30.6334Z" fill="#00094D"/>
<g clip-path="url(#clip0)">
<path fill-rule="evenodd" clip-rule="evenodd" d="M225.57 16.9151C225.554 16.2876 225.58 15.56 225.67 14.7214C226.001 11.6494 229.964 5.34375 236.503 5.34375C245.258 5.34375 247.44 11.423 247.771 13.3786C248.115 15.4182 247.582 16.9436 247.155 17.7751C247.177 17.9927 247.136 19.4642 247.081 20.2721C247.043 20.8336 246.79 22.2491 246.697 22.9233C246.673 23.1046 246.688 23.3638 246.8 23.4551C246.935 23.566 247.098 23.6511 247.249 23.7336C247.721 23.9942 249.296 25.0584 249.975 26.3754C250.465 27.3248 249.688 29.6967 249.688 29.6967C249.688 29.6967 249.685 29.6894 249.68 29.6755C249.497 30.3576 249.019 31.2386 247.946 32.2946C246.075 34.1352 239.236 36.8722 229.987 32.2946C219.246 26.9782 222.806 18.1703 223.473 17.3278C223.9 16.7893 225.371 16.7843 225.57 16.9151ZM246.709 18.4784C246.681 18.384 246.452 17.5963 246.364 16.5596C246.225 14.9058 245.571 12.3744 245.037 11.7072C244.508 11.0383 243.774 11.4236 243.103 11.6238C242.438 11.8239 241.584 11.8573 240.643 11.5404C239.699 11.2217 238.528 11.2868 238.528 11.2868C238.528 11.2868 239.11 11.1207 239.764 11.0423C240.41 10.9656 242.163 11.17 243.103 10.8698C244.046 10.5695 243.894 10.3378 244.728 10.8698C246.246 11.8385 246.373 12.3591 245.96 10.8698C245.62 9.64292 243.405 9.10842 238.528 8.82152C233.656 8.53626 231.779 12.2239 231.552 13.0229C231.32 13.8202 230.67 15.8909 231.849 19.4329C232.621 21.7506 234.407 22.0843 234.407 22.0843C234.407 22.0843 228.431 24.3637 226.335 20.3063C226.303 20.245 225.708 19.4181 225.587 17.3277V17.3278C225.587 17.3278 224.122 17.2522 223.473 18C223.369 18.1207 223.718 25.9689 230.078 29.6173C235.157 32.5316 242.17 32.8096 244.775 31.8776C248.311 30.6124 249.53 28.026 249.53 28.026C249.53 28.026 249.533 28.029 249.537 28.0351C249.713 27.5613 249.723 26.9773 249.53 26.6048C248.91 25.3854 247.59 24.3345 247.155 24.0943C246.958 23.9865 246.958 23.9865 246.574 23.7159C246.061 25.965 244.428 27.3788 244.428 27.3788C244.428 27.3788 245.96 24.9494 246.282 23.4551C246.422 22.8099 246.683 20.8713 246.711 20.3278C246.748 19.6299 246.711 18.4879 246.711 18.4879L246.709 18.4784Z" fill="#00094D"/>
<path fill-rule="evenodd" clip-rule="evenodd" d="M243.731 22.5033C244.235 22.4564 244.265 22.0445 244.435 22.0846C244.602 22.1263 244.158 22.6201 243.731 22.755C243.297 22.8886 242.876 22.8635 242.491 22.755C242.109 22.6502 242.147 22.138 242.227 21.7527C242.314 21.3689 242.06 19.6708 241.881 18.9051C241.701 18.1379 240.75 17.0253 239.771 16.8984C238.785 16.7684 237.482 17.3805 236.69 17.9828C235.891 18.59 236.07 19.9577 236.598 21.4155C237.127 22.8702 238.59 24.8169 240.323 26.1331C242.068 27.4579 243.462 27.7794 243.462 27.7794C243.462 27.7794 239.667 27.997 236.69 23.6565C233.713 19.3159 235.898 14.6348 235.898 14.6348C235.898 14.6348 235.342 17.5148 236.364 17.4838C236.806 17.4707 238.406 16.4496 239.416 16.56C240.421 16.6682 241.409 17.0486 241.791 17.7343C242.178 18.423 242.635 20.7001 242.847 21.5007C243.059 22.298 243.226 22.5533 243.731 22.5033Z" fill="#00094D"/>
<path fill-rule="evenodd" clip-rule="evenodd" d="M243.494 26.4664C243.323 26.497 242.343 26.3805 242.711 26.1383C242.993 25.9524 243.244 26.142 243.894 25.8894C244.351 25.7116 244.135 26.3521 243.494 26.4664Z" fill="#00094D"/>
<path fill-rule="evenodd" clip-rule="evenodd" d="M243.512 25.0749C242.828 25.1623 241.035 24.3308 241.035 24.3308C241.035 24.3308 242.883 24.3748 243.512 24.3308C244.145 24.2881 245.006 23.8613 245.006 23.8613C245.006 23.8613 244.126 24.9966 243.512 25.0749Z" fill="#00094D"/>
<path fill-rule="evenodd" clip-rule="evenodd" d="M239.624 18.6428C239.624 18.6428 240.035 19.5767 238.994 19.7103C238.213 19.8103 238.071 18.9621 238.071 18.9621C237.653 18.9289 237.283 19.1763 236.935 19.3844C236.935 19.3844 237.763 18.2999 238.906 18.2246C240.461 18.1223 241.029 18.8551 241.029 18.8551C240.48 18.6192 239.977 18.4802 239.624 18.6428Z" fill="#00094D"/>
<path fill-rule="evenodd" clip-rule="evenodd" d="M245.358 17.8579C245.358 17.8579 245.506 18.7694 244.639 18.8596C244.019 18.9239 243.75 18.2784 243.75 18.2784C243.402 18.3317 242.952 18.6678 242.778 18.9731C242.778 18.9731 242.826 17.9186 244.476 17.5165C245.737 17.2096 246.483 18.1903 246.483 18.1903C246.089 17.9424 245.58 17.7755 245.358 17.8579Z" fill="#00094D"/>
<path fill-rule="evenodd" clip-rule="evenodd" d="M246.533 16.1485C245.857 16.1436 244.165 16.2343 243.647 16.6741C243.128 17.1211 242.347 17.4218 242.347 17.4218C242.347 17.4218 242.939 16.9098 243.512 16.1851C244.077 15.4554 246.788 15.6568 246.788 15.6568C246.788 15.6568 247.201 16.1508 246.533 16.1485Z" fill="#00094D"/>
<path fill-rule="evenodd" clip-rule="evenodd" d="M247.524 28.6822C247.501 28.6217 247.512 28.5538 247.555 28.5056C247.596 28.4587 247.662 28.4386 247.725 28.4537C248.224 28.5851 249.12 28.8201 249.12 28.8201L248.068 30.0166C248.068 30.0166 247.719 29.1599 247.524 28.6822Z" fill="#00094D"/>
<path fill-rule="evenodd" clip-rule="evenodd" d="M245.917 29.8179C245.913 29.7444 245.949 29.6748 246.011 29.6372C246.072 29.6006 246.15 29.6016 246.213 29.6396C246.708 29.9543 247.597 30.5179 247.597 30.5179L246.046 31.4515C246.046 31.4515 245.963 30.4028 245.917 29.8179Z" fill="#00094D"/>
<path fill-rule="evenodd" clip-rule="evenodd" d="M244.344 30.6046C244.355 30.529 244.406 30.4655 244.477 30.44C244.546 30.4152 244.626 30.4322 244.682 30.4837C245.122 30.9051 245.91 31.6601 245.91 31.6601L244.142 32.2931C244.142 32.2931 244.272 31.2092 244.344 30.6046Z" fill="#00094D"/>
<path fill-rule="evenodd" clip-rule="evenodd" d="M242.513 30.9866C242.537 30.9214 242.594 30.8744 242.662 30.8651C242.728 30.8561 242.796 30.8861 242.836 30.9425C243.148 31.3997 243.707 32.219 243.707 32.219L242.016 32.4494C242.016 32.4494 242.335 31.5104 242.513 30.9866Z" fill="#00094D"/>
<path fill-rule="evenodd" clip-rule="evenodd" d="M240.365 30.9231C240.408 30.8584 240.483 30.8215 240.561 30.8283C240.637 30.8348 240.705 30.8841 240.736 30.9552C240.969 31.5278 241.387 32.554 241.387 32.554L239.448 32.3859C239.448 32.3859 240.037 31.447 240.365 30.9231Z" fill="#00094D"/>
<path fill-rule="evenodd" clip-rule="evenodd" d="M238.058 30.6244C238.102 30.5598 238.177 30.5241 238.254 30.5325C238.329 30.5407 238.394 30.5919 238.423 30.6644C238.638 31.2478 239.025 32.2935 239.025 32.2935L237.117 32.0841C237.117 32.0841 237.722 31.1472 238.058 30.6244Z" fill="#00094D"/>
<path fill-rule="evenodd" clip-rule="evenodd" d="M235.973 30.0902C236.03 30.0243 236.117 29.9943 236.202 30.0135C236.283 30.0321 236.349 30.097 236.371 30.181C236.535 30.8543 236.829 32.0612 236.829 32.0612L234.745 31.5856C234.745 31.5856 235.534 30.6258 235.973 30.0902Z" fill="#00094D"/>
<path fill-rule="evenodd" clip-rule="evenodd" d="M233.829 29.5822C233.886 29.5235 233.969 29.5001 234.047 29.5225C234.122 29.5442 234.181 29.6085 234.197 29.6882C234.315 30.327 234.527 31.4722 234.527 31.4722L232.601 30.9172C232.601 30.9172 233.39 30.0604 233.829 29.5822Z" fill="#00094D"/>
<path fill-rule="evenodd" clip-rule="evenodd" d="M231.966 28.9788C232.029 28.93 232.113 28.9191 232.186 28.9519C232.256 28.9837 232.303 29.0544 232.308 29.1341C232.331 29.7706 232.373 30.9117 232.373 30.9117L230.584 30.0986C230.584 30.0986 231.471 29.38 231.966 28.9788Z" fill="#00094D"/>
<path fill-rule="evenodd" clip-rule="evenodd" d="M230.392 27.9106C230.469 27.8752 230.559 27.8843 230.626 27.9357C230.691 27.9857 230.723 28.0705 230.708 28.1543C230.579 28.8205 230.348 30.0149 230.348 30.0149L228.69 28.7387C228.69 28.7387 229.782 28.2074 230.392 27.9106Z" fill="#00094D"/>
<path fill-rule="evenodd" clip-rule="evenodd" d="M228.817 26.4921C228.906 26.4622 229.003 26.4823 229.07 26.5461C229.136 26.608 229.161 26.7042 229.136 26.7942C228.918 27.5068 228.53 28.7847 228.53 28.7847L226.862 27.2031C226.862 27.2031 228.117 26.747 228.817 26.4921Z" fill="#00094D"/>
<path fill-rule="evenodd" clip-rule="evenodd" d="M227.357 25.1092C227.441 25.0969 227.525 25.1309 227.575 25.1991C227.623 25.2652 227.63 25.3555 227.593 25.432C227.281 26.0346 226.724 27.1154 226.724 27.1154L225.489 25.4253C225.489 25.4253 226.688 25.2227 227.357 25.1092Z" fill="#00094D"/>
<path fill-rule="evenodd" clip-rule="evenodd" d="M226.144 23.5573C226.217 23.5572 226.285 23.5968 226.319 23.6614C226.353 23.7241 226.347 23.8024 226.306 23.8633C225.964 24.3413 225.352 25.1986 225.352 25.1986L224.503 23.5964C224.503 23.5964 225.556 23.5716 226.144 23.5573Z" fill="#00094D"/>
<path fill-rule="evenodd" clip-rule="evenodd" d="M225.398 21.8627C225.469 21.8719 225.529 21.9183 225.553 21.9846C225.577 22.0488 225.562 22.1232 225.515 22.1763C225.127 22.5914 224.433 23.336 224.433 23.336L223.821 21.694C223.821 21.694 224.833 21.8026 225.398 21.8627Z" fill="#00094D"/>
<path fill-rule="evenodd" clip-rule="evenodd" d="M225.036 20.0441C225.106 20.0649 225.159 20.1214 225.173 20.1921C225.186 20.2607 225.159 20.3331 225.103 20.3789C224.645 20.7338 223.824 21.3707 223.824 21.3707L223.475 19.6175C223.475 19.6175 224.477 19.8916 225.036 20.0441Z" fill="#00094D"/>
<path fill-rule="evenodd" clip-rule="evenodd" d="M226.344 11.0031L226.044 11.1487L226.456 6.8995L227.425 7.52421L227.687 4.8207L228.846 5.56793L229.293 0.95752L233.107 3.41613L233.231 2.13726L236.05 3.95423L236.152 2.90069L239.59 5.11703C238.61 4.84092 237.577 4.69336 236.511 4.69336C232.058 4.69336 228.201 7.26484 226.344 11.0031ZM230.19 3.15215L231.908 4.05234L229.958 5.05585L230.19 3.15215Z" fill="#00094D"/>
</g>
<defs>
<clipPath id="clip0">
<path d="M219.121 0.847168H253.121V34.8472H219.121V0.847168Z" fill="white"/>
</clipPath>
</defs>
</svg>
