<svg width="648" height="21" viewBox="0 0 648 21" fill="none" xmlns="http://www.w3.org/2000/svg">
<path fill-rule="evenodd" clip-rule="evenodd" d="M2.18281 13.6423C6.56543 9.80354 16.4993 5.24641 31.3028 5.92712C49.028 6.74338 68.0844 19.2853 79.0734 20.3259C99.8178 22.2852 106.668 15.8803 109.947 13.1349C111.927 11.4888 111.083 10.7358 109.265 11.8577C105.645 14.1047 98.4704 16.5805 86.6536 15.1814C73.1973 13.5836 64.0588 1.90006 44.7104 0.281105C16.5155 -2.09235 2.34514 11.3051 0.770646 12.6876C-0.787619 14.064 0.186288 15.3953 2.18281 13.6423Z" fill="#BA250D"/>
<path fill-rule="evenodd" clip-rule="evenodd" d="M109.457 13.6423C113.839 9.80354 123.773 5.24641 138.577 5.92712C156.302 6.74338 175.358 19.2853 186.347 20.3259C207.092 22.2852 213.942 15.8803 217.22 13.1349C219.201 11.4888 218.357 10.7358 216.539 11.8577C212.919 14.1047 205.744 16.5805 193.928 15.1814C180.471 13.5836 171.333 1.90006 151.984 0.281105C123.789 -2.09235 109.619 11.3051 108.045 12.6876C106.486 14.064 107.46 15.3953 109.457 13.6423Z" fill="#BA250D"/>
<path fill-rule="evenodd" clip-rule="evenodd" d="M216.731 13.6423C221.113 9.80354 231.047 5.24641 245.851 5.92712C263.576 6.74338 282.632 19.2853 293.621 20.3259C314.366 22.2852 321.216 15.8803 324.494 13.1349C326.475 11.4888 325.631 10.7358 323.813 11.8577C320.193 14.1047 313.018 16.5805 301.201 15.1814C287.745 13.5836 278.607 1.90006 259.258 0.281105C231.063 -2.09235 216.893 11.3051 215.318 12.6876C213.76 14.064 214.734 15.3953 216.731 13.6423Z" fill="#BA250D"/>
<path fill-rule="evenodd" clip-rule="evenodd" d="M324.549 13.6423C328.932 9.80354 338.866 5.24641 353.669 5.92712C371.394 6.74338 390.451 19.2853 401.44 20.3259C422.184 22.2852 429.034 15.8803 432.313 13.1349C434.293 11.4888 433.449 10.7358 431.631 11.8577C428.011 14.1047 420.837 16.5805 409.02 15.1814C395.564 13.5836 386.425 1.90006 367.077 0.281105C338.882 -2.09235 324.712 11.3051 323.137 12.6876C321.579 14.064 322.553 15.3953 324.549 13.6423Z" fill="#BA250D"/>
<path fill-rule="evenodd" clip-rule="evenodd" d="M431.823 13.6423C436.206 9.80354 446.14 5.24641 460.943 5.92712C478.668 6.74338 497.725 19.2853 508.714 20.3259C529.458 22.2852 536.308 15.8803 539.587 13.1349C541.567 11.4888 540.723 10.7358 538.905 11.8577C535.285 14.1047 528.111 16.5805 516.294 15.1814C502.838 13.5836 493.699 1.90006 474.351 0.281105C446.156 -2.09235 431.986 11.3051 430.411 12.6876C428.853 14.064 429.827 15.3953 431.823 13.6423Z" fill="#BA250D"/>
<path fill-rule="evenodd" clip-rule="evenodd" d="M539.097 13.6423C543.48 9.80354 553.414 5.24641 568.217 5.92712C585.942 6.74338 604.999 19.2853 615.988 20.3259C636.732 22.2852 643.582 15.8803 646.861 13.1349C648.841 11.4888 647.997 10.7358 646.179 11.8577C642.559 14.1047 635.385 16.5805 623.568 15.1814C610.112 13.5836 600.973 1.90006 581.625 0.281105C553.43 -2.09235 539.259 11.3051 537.685 12.6876C536.127 14.064 537.101 15.3953 539.097 13.6423Z" fill="#BA250D"/>
</svg>
